<svg xmlns="http://www.w3.org/2000/svg" viewBox="0 0 441.97 511"><g id="Layer_2" data-name="Layer 2"><g id="Layer_1-2" data-name="Layer 1"><path d="M230.44,0c6.91,1.66,14,2.83,20.71,5.07a94,94,0,0,1,64,87.1c.13,6,0,11.94,0,18.58h5.65q32.18,0,64.36,0c11.64,0,17,4.43,18.22,15.83,3.69,33.87,7.18,67.76,10.75,101.64q5.25,49.83,10.52,99.66,5.22,49.59,10.39,99.18c2.21,21,4.37,42,6.7,63,1.22,11-2.2,17.91-10.68,20.29a24.43,24.43,0,0,1-6.4.67q-203.55,0-407.11,0C4.91,511-1.18,503.78.19,491.18c4-37,7.82-74,11.72-111.06q6.29-59.5,12.58-119Q30.22,206.57,35.87,152c.91-8.76,1.9-17.51,2.84-26.27,1-9.62,6.81-15,16.53-15,22.29-.06,44.57,0,66.86,0h4.75c0-5.17,0-10.07,0-15,0-15.53,3-30.44,10.32-44.2C152.53,22.8,176.32,5.76,208.67.87a18.86,18.86,0,0,0,2.8-.87ZM67.61,141.31Q49.81,310.93,32,480.18H409.78a14.8,14.8,0,0,0,.09-1.9Q402.61,409.61,395.33,341q-10.21-97.44-20.27-194.88c-.37-3.52-1.23-5.18-5.34-5.12-16.62.26-33.26.1-49.88.12-1.45,0-2.9.19-4.47.29-.07,1.72-.18,3-.18,4.35,0,9.65.15,19.29-.08,28.93a15,15,0,0,1-14.8,15.12c-8.29.16-14.79-5.74-15.58-14.32-.23-2.47-.1-5-.1-7.48,0-8.77,0-17.54,0-26.47H157.43v5.87c0,9,.15,18-.06,26.94s-6.6,15.35-15,15.46c-8.6.11-15.13-6.35-15.51-15.46-.12-2.82,0-5.65,0-8.48V141.31Zm217-30.71c0-5.89.09-11.34,0-16.79-.62-34.66-26.4-61.63-61-63.23-37.92-1.75-73.47,30.64-65.31,80Z"/></g></g></svg>